<svg id="instagram-grey" xmlns="http://www.w3.org/2000/svg" width="31.303" height="31.302" viewBox="0 0 31.303 31.302">
  <path id="Path_99" data-name="Path 99" d="M959.024,542.16a3.131,3.131,0,1,0-3.129-3.136,3.14,3.14,0,0,0,3.129,3.136Zm0,0" transform="translate(-943.374 -523.374)" fill="#a0a0a0"/>
  <path id="Path_100" data-name="Path 100" d="M967.186,534.487v-3.018l-.391,0-2.627.006.01,3.018Zm0,0" transform="translate(-944.693 -522.669)" fill="#a0a0a0"/>
  <path id="Path_101" data-name="Path 101" d="M956.653,521A15.651,15.651,0,1,0,972.3,536.653,15.669,15.669,0,0,0,956.653,521Zm8.9,13.824v7.29a3.444,3.444,0,0,1-3.438,3.442H951.189a3.444,3.444,0,0,1-3.438-3.442V531.192a3.444,3.444,0,0,1,3.438-3.441h10.925a3.444,3.444,0,0,1,3.438,3.441Zm0,0" transform="translate(-941 -521)" fill="#a0a0a0"/>
  <path id="Path_102" data-name="Path 102" d="M963.128,539.274a4.868,4.868,0,1,1-9.378-1.829h-2.656v7.29a1.705,1.705,0,0,0,1.7,1.7h10.921a1.707,1.707,0,0,0,1.708-1.7v-7.29h-2.661a4.775,4.775,0,0,1,.361,1.829Zm0,0" transform="translate(-942.609 -523.621)" fill="#a0a0a0"/>
</svg>
