<svg xmlns="http://www.w3.org/2000/svg" width="26.961" height="26.961" viewBox="0 0 26.961 26.961">
  <defs>
    <style>
      .cls-1 {
        fill: #fff;
      }
    </style>
  </defs>
  <g id="Group_11" data-name="Group 11" transform="translate(0 0)">
    <path id="Path_99" data-name="Path 99" class="cls-1" d="M958.59,541.29a2.7,2.7,0,1,0-2.695-2.7,2.7,2.7,0,0,0,2.695,2.7Zm0,0" transform="translate(-945.111 -525.11)"/>
    <path id="Path_100" data-name="Path 100" class="cls-1" d="M966.767,534.068v-2.6l-.337,0-2.263.005.009,2.6Zm0,0" transform="translate(-947.394 -523.889)"/>
    <path id="Path_101" data-name="Path 101" class="cls-1" d="M954.482,521a13.48,13.48,0,1,0,13.479,13.482A13.5,13.5,0,0,0,954.482,521Zm7.664,11.906v6.279a2.966,2.966,0,0,1-2.961,2.964h-9.409a2.966,2.966,0,0,1-2.961-2.964v-9.406a2.966,2.966,0,0,1,2.961-2.964h9.409a2.966,2.966,0,0,1,2.961,2.964Zm0,0" transform="translate(-941 -521)"/>
    <path id="Path_102" data-name="Path 102" class="cls-1" d="M961.459,539.02a4.193,4.193,0,1,1-8.077-1.575h-2.288v6.279a1.469,1.469,0,0,0,1.468,1.468h9.406a1.47,1.47,0,0,0,1.471-1.468v-6.279h-2.292a4.111,4.111,0,0,1,.311,1.575Zm0,0" transform="translate(-943.786 -525.538)"/>
  </g>
</svg>
