<svg xmlns="http://www.w3.org/2000/svg" width="98.884" height="54.872" viewBox="0 0 98.884 54.872">
  <defs>
    <style>
      .cls-1 {
        fill: #fff;
      }
    </style>
  </defs>
  <path id="kurul" class="cls-1" d="M153.315,225.257h-6.158v-3.564a7.022,7.022,0,0,0-7.014-7.014h-.1a5.634,5.634,0,1,0-8.305,0h-.1a7.022,7.022,0,0,0-7.014,7.014v3.564h-7.41v-3.564a7.022,7.022,0,0,0-7.014-7.014h-.1a5.634,5.634,0,1,0-8.305,0h-.1a7.022,7.022,0,0,0-7.014,7.014v3.564h-7.41v-3.564a7.022,7.022,0,0,0-7.014-7.014h-.1a5.634,5.634,0,1,0-8.305,0h-.1a7.022,7.022,0,0,0-7.014,7.014v3.564H58.57a2.072,2.072,0,0,0-2.07,2.07v3.494a2.072,2.072,0,0,0,2.07,2.07h2.049v23.782a3.453,3.453,0,0,0,3.449,3.449h83.749a3.453,3.453,0,0,0,3.449-3.449V232.89h2.049a2.072,2.072,0,0,0,2.07-2.07v-3.494A2.072,2.072,0,0,0,153.315,225.257ZM135.888,207.55a3.334,3.334,0,1,1-3.334,3.334A3.338,3.338,0,0,1,135.888,207.55Zm-29.946,0a3.334,3.334,0,1,1-3.334,3.334A3.338,3.338,0,0,1,105.942,207.55ZM76,207.55a3.334,3.334,0,1,1-3.334,3.334A3.338,3.338,0,0,1,76,207.55Zm50.924,14.143a4.72,4.72,0,0,1,4.714-4.714h8.509a4.72,4.72,0,0,1,4.714,4.714v3.564H126.92Zm-29.946,0a4.72,4.72,0,0,1,4.714-4.714H110.2a4.72,4.72,0,0,1,4.714,4.714v3.564H96.974Zm-29.946,0a4.72,4.72,0,0,1,4.714-4.714H80.25a4.72,4.72,0,0,1,4.714,4.714v3.564H67.027Zm81.939,34.98a1.151,1.151,0,0,1-1.15,1.15H64.068a1.151,1.151,0,0,1-1.15-1.15V232.89h86.049Zm4.118-26.082H58.8v-3.034h94.285Z" transform="translate(-56.5 -205.25)"/>
</svg>
