<svg id="linkedin-grey" xmlns="http://www.w3.org/2000/svg" width="31.21" height="31.21" viewBox="0 0 31.21 31.21">
  <path id="Path_104" data-name="Path 104" d="M259.605,244a15.605,15.605,0,1,0,15.605,15.605A15.607,15.607,0,0,0,259.605,244Zm-4.535,23.59h-3.8V256.156h3.8Zm-1.9-13h-.025a2.171,2.171,0,1,1,.025,0Zm15.6,13h-3.8v-6.117c0-1.537-.55-2.586-1.925-2.586a2.08,2.08,0,0,0-1.95,1.39,2.6,2.6,0,0,0-.125.927v6.385h-3.8s.05-10.361,0-11.434h3.8v1.619a3.773,3.773,0,0,1,3.425-1.887c2.5,0,4.375,1.634,4.375,5.146Zm0,0" transform="translate(-244 -244)" fill="#a0a0a0"/>
</svg>
