<svg xmlns="http://www.w3.org/2000/svg" width="26.882" height="26.881" viewBox="0 0 26.882 26.881">
  <defs>
    <style>
      .cls-1 {
        fill: #fff;
      }
    </style>
  </defs>
  <g id="Group_15" data-name="Group 15" transform="translate(0)">
    <path id="Path_105" data-name="Path 105" class="cls-1" d="M468.113,457.075l4.372-2.518-4.372-2.518Zm0,0" transform="translate(-456.346 -441.116)"/>
    <path id="Path_106" data-name="Path 106" class="cls-1" d="M257.441,244a13.441,13.441,0,1,0,13.441,13.441A13.442,13.442,0,0,0,257.441,244Zm8.4,13.455a22.183,22.183,0,0,1-.346,4.04,2.1,2.1,0,0,1-1.48,1.48,51.083,51.083,0,0,1-6.572.346,49.255,49.255,0,0,1-6.572-.36,2.1,2.1,0,0,1-1.481-1.481,23.76,23.76,0,0,1,0-8.08,2.147,2.147,0,0,1,1.481-1.494,51.084,51.084,0,0,1,6.572-.346,49.152,49.152,0,0,1,6.572.36,2.1,2.1,0,0,1,1.48,1.481,21.048,21.048,0,0,1,.346,4.054Zm0,0" transform="translate(-244 -244)"/>
  </g>
</svg>
