<svg id="Group_63" data-name="Group 63" xmlns="http://www.w3.org/2000/svg" width="49.945" height="61.347" viewBox="0 0 49.945 61.347">
  <defs>
    <style>
      .cls-1 {
        fill: #fff;
      }
    </style>
  </defs>
  <path id="Path_150" data-name="Path 150" class="cls-1" d="M411.283,543.685c0-1.019-.707-1.626-1.954-1.626a4.3,4.3,0,0,0-1.035.1v3.268a3.908,3.908,0,0,0,.838.064c1.329,0,2.151-.672,2.151-1.805Zm0,0" transform="translate(-398.912 -504.216)"/>
  <path id="Path_151" data-name="Path 151" class="cls-1" d="M465.88,542.262a5.182,5.182,0,0,0-1.133.1V549.6a4.5,4.5,0,0,0,.871.05c2.266.016,3.744-1.231,3.744-3.875a3.174,3.174,0,0,0-3.481-3.513Zm0,0" transform="translate(-445.789 -504.385)"/>
  <path id="Path_152" data-name="Path 152" class="cls-1" d="M387.438,319H362.8a6.539,6.539,0,0,0-6.53,6.529v24.144h-.638A2.631,2.631,0,0,0,353,352.3v15.956a2.63,2.63,0,0,0,2.631,2.631h.638v2.926a6.537,6.537,0,0,0,6.53,6.53h33.62a6.536,6.536,0,0,0,6.527-6.53V334.453ZM359.9,355.184a20.608,20.608,0,0,1,3.382-.229,5.305,5.305,0,0,1,3.382.886,3.236,3.236,0,0,1,1.182,2.561,3.537,3.537,0,0,1-1.018,2.627,5.134,5.134,0,0,1-3.6,1.165,6.485,6.485,0,0,1-.854-.048V366.1H359.9Zm36.516,21.164H362.8a2.533,2.533,0,0,1-2.529-2.531v-2.926h31.34a2.631,2.631,0,0,0,2.631-2.631V352.3a2.631,2.631,0,0,0-2.631-2.631h-31.34V325.529A2.532,2.532,0,0,1,362.8,323l23.144-.025v8.555a4.53,4.53,0,0,0,4.528,4.528l8.38-.024.094,37.781a2.531,2.531,0,0,1-2.526,2.531Zm-26.971-10.3V355.184a22.539,22.539,0,0,1,3.382-.229,7.125,7.125,0,0,1,4.532,1.181,4.9,4.9,0,0,1,1.872,4.171,5.61,5.61,0,0,1-1.839,4.482,7.942,7.942,0,0,1-5.106,1.428,21.664,21.664,0,0,1-2.841-.164Zm17.919-6.436v2.036h-3.974V366.1H380.88V355.038h6.764v2.051h-4.253v2.529Zm0,0" transform="translate(-353 -319)"/>
</svg>
