<svg xmlns="http://www.w3.org/2000/svg" width="10.727" height="14.961" viewBox="0 0 10.727 14.961">
  <g id="phone-grey" transform="translate(-400.662 -455.977)">
    <path id="Path_123" data-name="Path 123" d="M404.941,459.686a.943.943,0,0,0,.345-1.288l-1.126-1.95a.942.942,0,0,0-1.288-.345l-.9.52a2.614,2.614,0,0,0-1.288,2.594,16.136,16.136,0,0,0,6.478,11.255,2.608,2.608,0,0,0,2.8.113l.958-.553a.943.943,0,0,0,.345-1.288l-1.127-1.95a.943.943,0,0,0-1.288-.345l-.709.409a1.075,1.075,0,0,1-1.36-.278l-.034-.046a24.414,24.414,0,0,1-2.929-5.07l-.023-.053a1.046,1.046,0,0,1,.439-1.317Z" transform="translate(0 0)" fill="#a0a0a0"/>
  </g>
</svg>
