<svg id="tuzuk" xmlns="http://www.w3.org/2000/svg" width="56.793" height="59.436" viewBox="0 0 56.793 59.436">
  <defs>
    <style>
      .cls-1 {
        fill: #fff;
      }
    </style>
  </defs>
  <path id="Path_167" data-name="Path 167" class="cls-1" d="M407.831,262.195h-25.47a1.247,1.247,0,0,1-1.245-1.245V208.986a1.247,1.247,0,0,1,1.245-1.245H426.45a1.247,1.247,0,0,1,1.245,1.245v28.832a1.245,1.245,0,0,0,2.491,0V208.986a3.74,3.74,0,0,0-3.736-3.736H382.361a3.74,3.74,0,0,0-3.736,3.736V260.95a3.74,3.74,0,0,0,3.736,3.736h25.47a1.245,1.245,0,0,0,0-2.491Z" transform="translate(-378.625 -205.25)"/>
  <path id="Path_168" data-name="Path 168" class="cls-1" d="M429.029,225.75H404a1.245,1.245,0,0,0,0,2.491h25.034a1.245,1.245,0,1,0,0-2.491Z" transform="translate(-390.731 -215.537)"/>
  <path id="Path_169" data-name="Path 169" class="cls-1" d="M429.029,237.75H404a1.245,1.245,0,0,0,0,2.491h25.034a1.245,1.245,0,1,0,0-2.491Z" transform="translate(-390.731 -221.559)"/>
  <path id="Path_170" data-name="Path 170" class="cls-1" d="M430.274,251a1.245,1.245,0,0,0-1.245-1.245H404a1.245,1.245,0,0,0,0,2.491h25.034A1.245,1.245,0,0,0,430.274,251Z" transform="translate(-390.731 -227.581)"/>
  <path id="Path_171" data-name="Path 171" class="cls-1" d="M411.593,264.241a1.245,1.245,0,1,0,0-2.491H404a1.245,1.245,0,0,0,0,2.491Z" transform="translate(-390.731 -233.603)"/>
  <path id="Path_172" data-name="Path 172" class="cls-1" d="M409.039,296.329a6.29,6.29,0,1,0-6.289-6.29A6.3,6.3,0,0,0,409.039,296.329Zm0-10.088a3.8,3.8,0,1,1-3.8,3.8A3.8,3.8,0,0,1,409.039,286.241Z" transform="translate(-390.731 -244.643)"/>
  <path id="Path_173" data-name="Path 173" class="cls-1" d="M466.432,290.607h-3.051v-8.123a4.359,4.359,0,0,0-8.718,0v8.123h-3.051a3.74,3.74,0,0,0-3.736,3.736v5.169a1.746,1.746,0,0,0,1.744,1.744h18.806a1.746,1.746,0,0,0,1.744-1.744v-5.169A3.74,3.74,0,0,0,466.432,290.607Zm-9.279-8.123a1.868,1.868,0,1,1,3.736,0v8.123h-3.736Zm10.524,16.281H450.366v-4.421a1.247,1.247,0,0,1,1.245-1.245h14.821a1.247,1.247,0,0,1,1.245,1.245Z" transform="translate(-413.376 -241.82)"/>
</svg>
