<svg xmlns="http://www.w3.org/2000/svg" width="26.961" height="26.961" viewBox="0 0 26.961 26.961">
  <defs>
    <style>
      .cls-1 {
        fill: #fff;
      }
    </style>
  </defs>
  <g id="Group_10" data-name="Group 10" transform="translate(0 0)">
    <path id="Path_98" data-name="Path 98" class="cls-1" d="M954.482,521a13.48,13.48,0,1,0,13.479,13.482A13.5,13.5,0,0,0,954.482,521Zm6.013,10.4c.006.133.009.266.009.4a8.828,8.828,0,0,1-13.584,7.436,6.4,6.4,0,0,0,.738.042,6.225,6.225,0,0,0,3.855-1.329,3.107,3.107,0,0,1-2.9-2.155,3.111,3.111,0,0,0,1.4-.051,3.1,3.1,0,0,1-2.488-3.043v-.039a3.078,3.078,0,0,0,1.405.387,3.108,3.108,0,0,1-.961-4.141,8.82,8.82,0,0,0,6.395,3.241,3.107,3.107,0,0,1,5.289-2.832,6.188,6.188,0,0,0,1.971-.752,3.127,3.127,0,0,1-1.366,1.717,6.063,6.063,0,0,0,1.781-.489,6.272,6.272,0,0,1-1.547,1.606Zm0,0" transform="translate(-941 -521)"/>
  </g>
</svg>
