<svg id="twitter-grey" xmlns="http://www.w3.org/2000/svg" width="31.303" height="31.302" viewBox="0 0 31.303 31.302">
  <path id="Path_98" data-name="Path 98" d="M956.653,521A15.651,15.651,0,1,0,972.3,536.653,15.669,15.669,0,0,0,956.653,521Zm6.981,12.07c.007.155.01.309.01.466a10.249,10.249,0,0,1-15.771,8.633,7.44,7.44,0,0,0,.857.049,7.227,7.227,0,0,0,4.476-1.543,3.608,3.608,0,0,1-3.366-2.5,3.614,3.614,0,0,0,1.628-.06,3.6,3.6,0,0,1-2.889-3.533v-.045a3.573,3.573,0,0,0,1.631.45,3.608,3.608,0,0,1-1.116-4.808,10.24,10.24,0,0,0,7.424,3.763,3.607,3.607,0,0,1,6.141-3.288,7.184,7.184,0,0,0,2.288-.873,3.63,3.63,0,0,1-1.585,1.993,7.036,7.036,0,0,0,2.068-.568,7.283,7.283,0,0,1-1.8,1.865Zm0,0" transform="translate(-941 -521)" fill="#a0a0a0"/>
</svg>
