<svg id="user" xmlns="http://www.w3.org/2000/svg" width="84.551" height="44.381" viewBox="0 0 84.551 44.381">
  <defs>
    <style>
      .cls-1 {
        fill: #fff;
      }
    </style>
  </defs>
  <path id="Path_174" data-name="Path 174" class="cls-1" d="M638.506,289.344a1.444,1.444,0,0,0,1.445-1.445v-3.622a8.035,8.035,0,0,0-7.81-8.019,6.481,6.481,0,1,0-10,0,8.035,8.035,0,0,0-7.809,8.019V287.9a1.445,1.445,0,1,0,2.889,0v-3.622a5.148,5.148,0,0,1,5.142-5.142h9.556a5.148,5.148,0,0,1,5.142,5.142V287.9A1.444,1.444,0,0,0,638.506,289.344Zm-11.364-20.8a3.592,3.592,0,1,1-3.592,3.592A3.6,3.6,0,0,1,627.142,268.546Z" transform="translate(-606.34 -255.31)"/>
  <path id="Path_175" data-name="Path 175" class="cls-1" d="M654.142,289.242H604.834a1.446,1.446,0,0,1-1.445-1.445V252.084a1.446,1.446,0,0,1,1.445-1.445h61.829a1.446,1.446,0,0,1,1.445,1.445v3.9a1.445,1.445,0,1,0,2.889,0v-3.9a4.338,4.338,0,0,0-4.334-4.334H604.834a4.338,4.338,0,0,0-4.334,4.334V287.8a4.338,4.338,0,0,0,4.334,4.334h49.309a1.445,1.445,0,0,0,0-2.889Z" transform="translate(-600.5 -247.75)"/>
  <path id="Path_176" data-name="Path 176" class="cls-1" d="M684.005,275.818a1.444,1.444,0,0,0-1.445-1.445H669.945a1.445,1.445,0,0,0,0,2.889h12.616A1.445,1.445,0,0,0,684.005,275.818Z" transform="translate(-629.207 -258.989)"/>
  <path id="Path_177" data-name="Path 177" class="cls-1" d="M680.538,285.534a1.444,1.444,0,0,0-1.445-1.445h-9.149a1.445,1.445,0,0,0,0,2.889h9.149A1.444,1.444,0,0,0,680.538,285.534Z" transform="translate(-629.207 -263.091)"/>
  <path id="Path_178" data-name="Path 178" class="cls-1" d="M669.945,293.8a1.445,1.445,0,1,0,0,2.889h5.1a1.445,1.445,0,1,0,0-2.889Z" transform="translate(-629.207 -267.193)"/>
  <path id="Path_179" data-name="Path 179" class="cls-1" d="M722.731,284.966a1.444,1.444,0,0,0-1.445,1.445,12.6,12.6,0,1,1-6.119-10.814,1.445,1.445,0,0,0,1.49-2.475,15.5,15.5,0,1,0,7.518,13.289A1.444,1.444,0,0,0,722.731,284.966Z" transform="translate(-639.625 -257.528)"/>
  <path id="Path_180" data-name="Path 180" class="cls-1" d="M709.372,286.615a1.444,1.444,0,1,0-2.043,2.043l5.786,5.788a2.026,2.026,0,0,0,2.86,0l13.235-13.235a1.444,1.444,0,1,0-2.043-2.043l-12.622,12.622Z" transform="translate(-645.421 -260.835)"/>
</svg>
