<svg xmlns="http://www.w3.org/2000/svg" width="26.882" height="26.881" viewBox="0 0 26.882 26.881">
  <defs>
    <style>
      .cls-1 {
        fill: #fff;
      }
    </style>
  </defs>
  <g id="Group_14" data-name="Group 14" transform="translate(0)">
    <path id="Path_104" data-name="Path 104" class="cls-1" d="M257.441,244a13.441,13.441,0,1,0,13.441,13.441A13.442,13.442,0,0,0,257.441,244Zm-3.906,20.319h-3.273V254.47h3.273ZM251.9,253.126h-.021a1.87,1.87,0,1,1,.021,0Zm13.44,11.193h-3.273V259.05c0-1.324-.474-2.227-1.658-2.227a1.792,1.792,0,0,0-1.679,1.2,2.241,2.241,0,0,0-.108.8v5.5h-3.273s.043-8.924,0-9.848h3.273v1.394a3.25,3.25,0,0,1,2.95-1.626c2.154,0,3.768,1.408,3.768,4.432Zm0,0" transform="translate(-244 -244)"/>
  </g>
</svg>
