<svg id="youtube-grey" xmlns="http://www.w3.org/2000/svg" width="31.21" height="31.21" viewBox="0 0 31.21 31.21">
  <path id="Path_105" data-name="Path 105" d="M468.113,457.886l5.076-2.924-5.076-2.924Zm0,0" transform="translate(-454.452 -439.358)" fill="#a0a0a0"/>
  <path id="Path_106" data-name="Path 106" d="M259.605,244a15.605,15.605,0,1,0,15.605,15.605A15.607,15.607,0,0,0,259.605,244Zm9.751,15.621a25.756,25.756,0,0,1-.4,4.691,2.443,2.443,0,0,1-1.719,1.719,59.307,59.307,0,0,1-7.63.4s-6.088,0-7.63-.418a2.444,2.444,0,0,1-1.719-1.719,27.586,27.586,0,0,1,0-9.381,2.493,2.493,0,0,1,1.719-1.735,59.312,59.312,0,0,1,7.63-.4s6.1,0,7.63.418a2.444,2.444,0,0,1,1.719,1.719,24.436,24.436,0,0,1,.4,4.707Zm0,0" transform="translate(-244 -244)" fill="#a0a0a0"/>
</svg>
